<svg width="10" height="10" viewBox="0 0 10 10" fill="none" xmlns="http://www.w3.org/2000/svg">
<path d="M9.56569 1.56569C9.8781 1.25327 9.8781 0.746734 9.56569 0.434315C9.25327 0.121895 8.74673 0.121895 8.43431 0.434315L9.56569 1.56569ZM0.434315 8.43431C0.121895 8.74673 0.121895 9.25327 0.434315 9.56569C0.746734 9.8781 1.25327 9.8781 1.56569 9.56569L0.434315 8.43431ZM1.56569 0.434315C1.25327 0.121895 0.746734 0.121895 0.434315 0.434315C0.121895 0.746734 0.121895 1.25327 0.434315 1.56569L1.56569 0.434315ZM8.43431 9.56569C8.74673 9.8781 9.25327 9.8781 9.56569 9.56569C9.8781 9.25327 9.8781 8.74673 9.56569 8.43431L8.43431 9.56569ZM8.43431 0.434315L0.434315 8.43431L1.56569 9.56569L9.56569 1.56569L8.43431 0.434315ZM0.434315 1.56569L8.43431 9.56569L9.56569 8.43431L1.56569 0.434315L0.434315 1.56569Z" fill="#7F56D9"/>
</svg>
