<svg width="18" height="18" viewBox="0 0 18 18" fill="none" xmlns="http://www.w3.org/2000/svg">
<path d="M16.4343 17.5657C16.7467 17.8781 17.2533 17.8781 17.5657 17.5657C17.8781 17.2533 17.8781 16.7467 17.5657 16.4343L16.4343 17.5657ZM13.699 12.5676C13.3866 12.2552 12.8801 12.2552 12.5676 12.5676C12.2552 12.8801 12.2552 13.3866 12.5676 13.699L13.699 12.5676ZM14.4222 8.11111C14.4222 11.5966 11.5966 14.4222 8.11111 14.4222V16.0222C12.4803 16.0222 16.0222 12.4803 16.0222 8.11111H14.4222ZM8.11111 14.4222C4.62558 14.4222 1.8 11.5966 1.8 8.11111H0.2C0.2 12.4803 3.74193 16.0222 8.11111 16.0222V14.4222ZM1.8 8.11111C1.8 4.62558 4.62558 1.8 8.11111 1.8V0.2C3.74193 0.2 0.2 3.74193 0.2 8.11111H1.8ZM8.11111 1.8C11.5966 1.8 14.4222 4.62558 14.4222 8.11111H16.0222C16.0222 3.74193 12.4803 0.2 8.11111 0.2V1.8ZM17.5657 16.4343L13.699 12.5676L12.5676 13.699L16.4343 17.5657L17.5657 16.4343Z" fill="#98A2B3"/>
</svg>
