<svg width="5" height="8" viewBox="0 0 5 8" fill="none" xmlns="http://www.w3.org/2000/svg">
<path d="M4.4 4.00005L4.82426 4.42431C5.05858 4.19 5.05858 3.8101 4.82426 3.57579L4.4 4.00005ZM1.62426 0.375785C1.38995 0.14147 1.01005 0.14147 0.775733 0.375785C0.541419 0.610099 0.541419 0.989998 0.775733 1.22431L1.62426 0.375785ZM0.775733 6.77578C0.541418 7.0101 0.541418 7.39 0.775733 7.62431C1.01005 7.85863 1.38995 7.85863 1.62426 7.62431L0.775733 6.77578ZM0.775733 1.22431L3.97573 4.42431L4.82426 3.57579L1.62426 0.375785L0.775733 1.22431ZM3.97573 3.57578L0.775733 6.77578L1.62426 7.62431L4.82426 4.42431L3.97573 3.57578Z" fill="#D0D5DD"/>
</svg>
