<svg width="19" height="18" viewBox="0 0 19 18" fill="none" xmlns="http://www.w3.org/2000/svg">
<path d="M12.7921 5.608L13.5511 5.86098C13.6469 5.57351 13.5721 5.25658 13.3578 5.04232C13.1436 4.82805 12.8266 4.75323 12.5392 4.84905L12.7921 5.608ZM11.0961 10.696L11.3491 11.4549C11.588 11.3753 11.7755 11.1879 11.8551 10.949L11.0961 10.696ZM6.00815 12.392L5.2492 12.139C5.15338 12.4265 5.2282 12.7434 5.44246 12.9577C5.65673 13.172 5.97366 13.2468 6.26113 13.1509L6.00815 12.392ZM7.70415 7.304L7.45116 6.54505C7.21228 6.62468 7.02483 6.81213 6.9452 7.05102L7.70415 7.304ZM16.6001 9C16.6001 12.9765 13.3766 16.2 9.40015 16.2V17.8C14.2603 17.8 18.2001 13.8601 18.2001 9H16.6001ZM9.40015 16.2C5.4237 16.2 2.20015 12.9765 2.20015 9H0.600146C0.600146 13.8601 4.54004 17.8 9.40015 17.8V16.2ZM2.20015 9C2.20015 5.02355 5.4237 1.8 9.40015 1.8V0.2C4.54004 0.2 0.600146 4.13989 0.600146 9H2.20015ZM9.40015 1.8C13.3766 1.8 16.6001 5.02355 16.6001 9H18.2001C18.2001 4.13989 14.2603 0.2 9.40015 0.2V1.8ZM12.0332 5.35502L10.3372 10.443L11.8551 10.949L13.5511 5.86098L12.0332 5.35502ZM10.8432 9.93705L5.75516 11.6331L6.26113 13.1509L11.3491 11.4549L10.8432 9.93705ZM6.76709 12.645L8.46309 7.55698L6.9452 7.05102L5.2492 12.139L6.76709 12.645ZM7.95713 8.06295L13.0451 6.36695L12.5392 4.84905L7.45116 6.54505L7.95713 8.06295Z"/>
</svg>
