<svg width="21" height="20" viewBox="0 0 21 20" fill="none" xmlns="http://www.w3.org/2000/svg">
<g clip-path="url(#clip0_37_4713)">
<path d="M1.19971 1.2C0.757879 1.2 0.399707 1.55817 0.399707 2C0.399707 2.44183 0.757879 2.8 1.19971 2.8V1.2ZM4.47243 2L5.25328 1.82599C5.17176 1.46018 4.84721 1.2 4.47243 1.2V2ZM6.66516 11.8395L7.44951 11.6821C7.4484 11.6765 7.44723 11.671 7.44601 11.6655L6.66516 11.8395ZM8.30153 13.1429V12.3429C8.29647 12.3429 8.29141 12.3429 8.28636 12.343L8.30153 13.1429ZM16.2543 13.1429L16.2694 12.343C16.2644 12.3429 16.2593 12.3429 16.2543 12.3429V13.1429ZM17.8906 11.8395L17.1103 11.6632C17.1089 11.6694 17.1075 11.6757 17.1063 11.6821L17.8906 11.8395ZM19.1997 6.04762L19.98 6.22399C20.0336 5.98681 19.9765 5.73812 19.8246 5.54817C19.6728 5.35821 19.4429 5.24762 19.1997 5.24762V6.04762ZM5.29062 5.24762C4.84879 5.24762 4.49062 5.60579 4.49062 6.04762C4.49062 6.48945 4.84879 6.84762 5.29062 6.84762V5.24762ZM7.76334 17.1905C7.76334 17.192 7.7632 17.1917 7.76344 17.1911C7.76345 17.1911 7.76288 17.1924 7.76103 17.1942C7.75918 17.196 7.75698 17.1975 7.7548 17.1984C7.75312 17.1991 7.75036 17.2 7.74516 17.2V18.8C8.63082 18.8 9.36334 18.0874 9.36334 17.1905H7.76334ZM7.74516 17.2C7.73996 17.2 7.7372 17.1991 7.73553 17.1984C7.73334 17.1975 7.73114 17.196 7.72929 17.1942C7.72744 17.1924 7.72687 17.1911 7.72688 17.1911C7.72713 17.1917 7.72698 17.192 7.72698 17.1905H6.12698C6.12698 18.0874 6.85951 18.8 7.74516 18.8V17.2ZM7.72698 17.1905C7.72698 17.1889 7.72713 17.1893 7.72688 17.1898C7.72687 17.1899 7.72744 17.1886 7.72929 17.1867C7.73114 17.1849 7.73334 17.1835 7.73553 17.1826C7.7372 17.1819 7.73996 17.181 7.74516 17.181V15.581C6.85951 15.581 6.12698 16.2936 6.12698 17.1905H7.72698ZM7.74516 17.181C7.75036 17.181 7.75313 17.1819 7.7548 17.1826C7.75698 17.1835 7.75918 17.1849 7.76104 17.1867C7.76288 17.1886 7.76345 17.1899 7.76344 17.1898C7.7632 17.1893 7.76334 17.1889 7.76334 17.1905H9.36334C9.36334 16.2936 8.63081 15.581 7.74516 15.581V17.181ZM16.7633 17.1905C16.7633 17.192 16.7632 17.1917 16.7634 17.1911C16.7634 17.1911 16.7629 17.1924 16.761 17.1942C16.7592 17.196 16.757 17.1975 16.7548 17.1984C16.7531 17.1991 16.7504 17.2 16.7452 17.2V18.8C17.6308 18.8 18.3633 18.0874 18.3633 17.1905H16.7633ZM16.7452 17.2C16.74 17.2 16.7372 17.1991 16.7355 17.1984C16.7333 17.1975 16.7311 17.196 16.7293 17.1942C16.7274 17.1924 16.7269 17.1911 16.7269 17.1911C16.7271 17.1917 16.727 17.192 16.727 17.1905H15.127C15.127 18.0874 15.8595 18.8 16.7452 18.8V17.2ZM16.727 17.1905C16.727 17.1889 16.7271 17.1893 16.7269 17.1898C16.7269 17.1899 16.7274 17.1886 16.7293 17.1867C16.7311 17.1849 16.7333 17.1835 16.7355 17.1826C16.7372 17.1819 16.74 17.181 16.7452 17.181V15.581C15.8595 15.581 15.127 16.2936 15.127 17.1905H16.727ZM16.7452 17.181C16.7504 17.181 16.7531 17.1819 16.7548 17.1826C16.757 17.1835 16.7592 17.1849 16.761 17.1867C16.7629 17.1886 16.7634 17.1899 16.7634 17.1898C16.7632 17.1893 16.7633 17.1889 16.7633 17.1905H18.3633C18.3633 16.2936 17.6308 15.581 16.7452 15.581V17.181ZM1.19971 2.8H4.47243V1.2H1.19971V2.8ZM3.69159 2.17401L5.88432 12.0135L7.44601 11.6655L5.25328 1.82599L3.69159 2.17401ZM5.88081 11.997C5.993 12.5558 6.29994 13.0561 6.74565 13.4111L7.74247 12.1595C7.58987 12.038 7.48696 11.8686 7.44951 11.6821L5.88081 11.997ZM6.74565 13.4111C7.19117 13.7659 7.74732 13.9535 8.31669 13.9427L8.28636 12.343C8.08778 12.3468 7.89527 12.2812 7.74247 12.1595L6.74565 13.4111ZM8.30153 13.9429H16.2543V12.3429H8.30153V13.9429ZM16.2391 13.9427C16.8085 13.9535 17.3646 13.7659 17.8101 13.4111L16.8133 12.1595C16.6605 12.2812 16.468 12.3468 16.2694 12.343L16.2391 13.9427ZM17.8101 13.4111C18.2558 13.0561 18.5628 12.5558 18.675 11.997L17.1063 11.6821C17.0688 11.8686 16.9659 12.038 16.8133 12.1595L17.8101 13.4111ZM18.6709 12.0159L19.98 6.22399L18.4194 5.87125L17.1103 11.6632L18.6709 12.0159ZM19.1997 5.24762H5.29062V6.84762H19.1997V5.24762Z"/>
</g>
<defs>
<clipPath id="clip0_37_4713">
<rect width="20" height="20" fill="white" transform="translate(0.199707)"/>
</clipPath>
</defs>
</svg>
