<svg width="16" height="18" viewBox="0 0 16 18" fill="none" xmlns="http://www.w3.org/2000/svg">
<path d="M14.2 17C14.2 17.4418 14.5582 17.8 15 17.8C15.4418 17.8 15.8 17.4418 15.8 17H14.2ZM11.5 11.6667V10.8667V11.6667ZM4.5 11.6667V10.8667V11.6667ZM1 15.2222H0.2H1ZM0.2 17C0.2 17.4418 0.558172 17.8 1 17.8C1.44183 17.8 1.8 17.4418 1.8 17H0.2ZM15.8 17V15.2222H14.2V17H15.8ZM15.8 15.2222C15.8 14.0711 15.35 12.9646 14.545 12.1469L13.4048 13.2693C13.9125 13.7851 14.2 14.4874 14.2 15.2222H15.8ZM14.545 12.1469C13.7396 11.3287 12.6445 10.8667 11.5 10.8667V12.4667C12.212 12.4667 12.8974 12.7539 13.4048 13.2693L14.545 12.1469ZM11.5 10.8667H4.5V12.4667H11.5V10.8667ZM4.5 10.8667C3.35547 10.8667 2.26041 11.3287 1.455 12.1469L2.59525 13.2693C3.1026 12.7539 3.78802 12.4667 4.5 12.4667V10.8667ZM1.455 12.1469C0.650023 12.9646 0.2 14.0711 0.2 15.2222H1.8C1.8 14.4874 2.08747 13.7851 2.59525 13.2693L1.455 12.1469ZM0.2 15.2222V17H1.8V15.2222H0.2ZM10.7 4.55556C10.7 6.08933 9.47934 7.31111 8 7.31111V8.91111C10.3867 8.91111 12.3 6.94914 12.3 4.55556H10.7ZM8 7.31111C6.52066 7.31111 5.3 6.08933 5.3 4.55556H3.7C3.7 6.94914 5.61334 8.91111 8 8.91111V7.31111ZM5.3 4.55556C5.3 3.02178 6.52066 1.8 8 1.8V0.2C5.61334 0.2 3.7 2.16197 3.7 4.55556H5.3ZM8 1.8C9.47934 1.8 10.7 3.02178 10.7 4.55556H12.3C12.3 2.16197 10.3867 0.2 8 0.2V1.8Z" fill="#101828"/>
</svg>
