<svg width="21" height="20" viewBox="0 0 21 20" fill="none" xmlns="http://www.w3.org/2000/svg">
<path d="M16.7996 18C16.7996 18.4418 17.1578 18.8 17.5996 18.8C18.0414 18.8 18.3996 18.4418 18.3996 18H16.7996ZM14.0996 12.6667V11.8667V12.6667ZM7.09961 12.6667V11.8667V12.6667ZM3.59961 16.2222H2.79961H3.59961ZM2.79961 18C2.79961 18.4418 3.15778 18.8 3.59961 18.8C4.04144 18.8 4.39961 18.4418 4.39961 18H2.79961ZM18.3996 18V16.2222H16.7996V18H18.3996ZM18.3996 16.2222C18.3996 15.0711 17.9496 13.9646 17.1446 13.1469L16.0044 14.2693C16.5121 14.7851 16.7996 15.4874 16.7996 16.2222H18.3996ZM17.1446 13.1469C16.3392 12.3287 15.2441 11.8667 14.0996 11.8667V13.4667C14.8116 13.4667 15.497 13.7539 16.0044 14.2693L17.1446 13.1469ZM14.0996 11.8667H7.09961V13.4667H14.0996V11.8667ZM7.09961 11.8667C5.95508 11.8667 4.86001 12.3287 4.05461 13.1469L5.19486 14.2693C5.70221 13.7539 6.38763 13.4667 7.09961 13.4667V11.8667ZM4.05461 13.1469C3.24963 13.9646 2.79961 15.0711 2.79961 16.2222H4.39961C4.39961 15.4874 4.68708 14.7851 5.19486 14.2693L4.05461 13.1469ZM2.79961 16.2222V18H4.39961V16.2222H2.79961ZM13.2996 5.55556C13.2996 7.08933 12.0789 8.31111 10.5996 8.31111V9.91111C12.9863 9.91111 14.8996 7.94914 14.8996 5.55556H13.2996ZM10.5996 8.31111C9.12027 8.31111 7.89961 7.08933 7.89961 5.55556H6.29961C6.29961 7.94914 8.21295 9.91111 10.5996 9.91111V8.31111ZM7.89961 5.55556C7.89961 4.02178 9.12027 2.8 10.5996 2.8V1.2C8.21295 1.2 6.29961 3.16197 6.29961 5.55556H7.89961ZM10.5996 2.8C12.0789 2.8 13.2996 4.02178 13.2996 5.55556H14.8996C14.8996 3.16197 12.9863 1.2 10.5996 1.2V2.8Z"/>
</svg>
