<svg width="16" height="18" viewBox="0 0 16 18" fill="none" xmlns="http://www.w3.org/2000/svg">
<path d="M0.800049 6.6L0.300293 5.97531C0.110521 6.12712 4.88162e-05 6.35697 4.88162e-05 6.6H0.800049ZM7.80005 1L8.29981 0.375305C8.00763 0.141565 7.59247 0.141565 7.30029 0.375305L7.80005 1ZM14.8 6.6H15.6C15.6 6.35697 15.4896 6.12712 15.2998 5.97531L14.8 6.6ZM0.800049 15.4H4.88162e-05H0.800049ZM4.66672 17C4.66672 17.4418 5.02489 17.8 5.46672 17.8C5.90854 17.8 6.26672 17.4418 6.26672 17H4.66672ZM5.46672 9V8.2C5.02489 8.2 4.66672 8.55817 4.66672 9H5.46672ZM10.1334 9H10.9334C10.9334 8.55817 10.5752 8.2 10.1334 8.2V9ZM9.33338 17C9.33338 17.4418 9.69155 17.8 10.1334 17.8C10.5752 17.8 10.9334 17.4418 10.9334 17H9.33338ZM1.2998 7.2247L8.29981 1.6247L7.30029 0.375305L0.300293 5.97531L1.2998 7.2247ZM7.30029 1.6247L14.3003 7.2247L15.2998 5.97531L8.29981 0.375305L7.30029 1.6247ZM14 6.6V15.4H15.6V6.6H14ZM14 15.4C14 15.6193 13.9151 15.8253 13.7708 15.9737L14.918 17.089C15.3572 16.6373 15.6 16.0294 15.6 15.4H14ZM13.7708 15.9737C13.6273 16.1214 13.4375 16.2 13.2445 16.2V17.8C13.8766 17.8 14.4781 17.5415 14.918 17.089L13.7708 15.9737ZM13.2445 16.2H2.3556V17.8H13.2445V16.2ZM2.3556 16.2C2.16261 16.2 1.9728 16.1214 1.82926 15.9737L0.682064 17.089C1.12197 17.5415 1.72348 17.8 2.3556 17.8V16.2ZM1.82926 15.9737C1.68497 15.8253 1.60005 15.6193 1.60005 15.4H4.88162e-05C4.88162e-05 16.0294 0.242905 16.6373 0.682064 17.089L1.82926 15.9737ZM1.60005 15.4V6.6H4.88162e-05V15.4H1.60005ZM6.26672 17V9H4.66672V17H6.26672ZM5.46672 9.8H10.1334V8.2H5.46672V9.8ZM9.33338 9V17H10.9334V9H9.33338Z" />
</svg>
